<svg width="16" height="16" viewBox="0 0 16 16" fill="none" xmlns="http://www.w3.org/2000/svg">
<g id="elements">
<path id="shape" d="M3.54797 6.45537C5.15709 3.60807 5.96165 2.18442 7.06567 1.81796C7.67304 1.61635 8.32729 1.61635 8.93466 1.81796C10.0387 2.18442 10.8432 3.60807 12.4524 6.45537C14.0615 9.30266 14.866 10.7263 14.6247 11.8863C14.4919 12.5245 14.1648 13.1033 13.6902 13.5399C12.8275 14.3334 11.2184 14.3334 8.00016 14.3334C4.78193 14.3334 3.17281 14.3334 2.31014 13.5399C1.83555 13.1033 1.50842 12.5245 1.37565 11.8863C1.13429 10.7263 1.93885 9.30266 3.54797 6.45537Z" stroke="#0A0A0A" stroke-width="1.6"/>
<path id="point" d="M7.99499 10.6667H8.00098" stroke="#0A0A0A" stroke-width="2" stroke-linecap="round" stroke-linejoin="round"/>
<path id="shape_2" d="M8 8.66675L8 6.00008" stroke="#0A0A0A" stroke-width="1.6" stroke-linecap="round" stroke-linejoin="round"/>
</g>
</svg>
