<svg width="14" height="16" viewBox="0 0 14 16" fill="none" xmlns="http://www.w3.org/2000/svg">
<g id="elements">
<path id="shape" d="M12 3.6665L11.5868 10.3499C11.4813 12.0575 11.4285 12.9113 11.0005 13.5251C10.7889 13.8286 10.5164 14.0847 10.2005 14.2772C9.56141 14.6665 8.70599 14.6665 6.99516 14.6665C5.28208 14.6665 4.42554 14.6665 3.78604 14.2765C3.46987 14.0836 3.19733 13.827 2.98579 13.5231C2.55792 12.9082 2.5063 12.0532 2.40307 10.3433L2 3.6665" stroke="#0A0A0A" stroke-width="1.6" stroke-linecap="round"/>
<path id="shape_2" d="M1 3.66659H13M9.70382 3.66659L9.2487 2.72774C8.94638 2.10409 8.79522 1.79227 8.53448 1.59779C8.47664 1.55465 8.4154 1.51628 8.35135 1.48305C8.06261 1.33325 7.71608 1.33325 7.02302 1.33325C6.31255 1.33325 5.95732 1.33325 5.66379 1.48933C5.59873 1.52392 5.53666 1.56385 5.4782 1.6087C5.21443 1.81105 5.06709 2.13429 4.7724 2.78076L4.36862 3.66659" stroke="#0A0A0A" stroke-width="1.6" stroke-linecap="round"/>
<path id="shape_3" d="M5.3335 11L5.3335 7" stroke="#0A0A0A" stroke-width="1.6" stroke-linecap="round"/>
<path id="shape_4" d="M8.6665 11L8.6665 7" stroke="#0A0A0A" stroke-width="1.6" stroke-linecap="round"/>
</g>
</svg>
