<svg width="16" height="16" viewBox="0 0 16 16" fill="none" xmlns="http://www.w3.org/2000/svg">
<g id="elements">
<path id="shape" d="M12.0002 1.33325V6.66658M14.6668 3.99992L9.3335 3.99992" stroke="#0A0A0A" stroke-width="1.6" stroke-linecap="round" stroke-linejoin="round"/>
<path id="shape_2" d="M1.3335 3.99992C1.3335 3.0665 1.3335 2.59979 1.51515 2.24327C1.67494 1.92966 1.92991 1.6747 2.24351 1.51491C2.60003 1.33325 3.06674 1.33325 4.00016 1.33325C4.93358 1.33325 5.40029 1.33325 5.75681 1.51491C6.07042 1.6747 6.32538 1.92966 6.48517 2.24327C6.66683 2.59979 6.66683 3.0665 6.66683 3.99992C6.66683 4.93334 6.66683 5.40005 6.48517 5.75657C6.32538 6.07017 6.07042 6.32514 5.75681 6.48493C5.40029 6.66658 4.93358 6.66658 4.00016 6.66658C3.06674 6.66658 2.60003 6.66658 2.24351 6.48493C1.92991 6.32514 1.67494 6.07017 1.51515 5.75657C1.3335 5.40005 1.3335 4.93334 1.3335 3.99992Z" stroke="#0A0A0A" stroke-width="1.6"/>
<path id="shape_3" d="M1.3335 11.9999C1.3335 11.0665 1.3335 10.5998 1.51515 10.2433C1.67494 9.92966 1.92991 9.6747 2.24351 9.51491C2.60003 9.33325 3.06674 9.33325 4.00016 9.33325C4.93358 9.33325 5.40029 9.33325 5.75681 9.51491C6.07042 9.6747 6.32538 9.92966 6.48517 10.2433C6.66683 10.5998 6.66683 11.0665 6.66683 11.9999C6.66683 12.9333 6.66683 13.4001 6.48517 13.7566C6.32538 14.0702 6.07042 14.3251 5.75681 14.4849C5.40029 14.6666 4.93358 14.6666 4.00016 14.6666C3.06674 14.6666 2.60003 14.6666 2.24351 14.4849C1.92991 14.3251 1.67494 14.0702 1.51515 13.7566C1.3335 13.4001 1.3335 12.9333 1.3335 11.9999Z" stroke="#0A0A0A" stroke-width="1.6"/>
<path id="shape_4" d="M9.3335 11.9999C9.3335 11.0665 9.3335 10.5998 9.51515 10.2433C9.67494 9.92966 9.92991 9.6747 10.2435 9.51491C10.6 9.33325 11.0667 9.33325 12.0002 9.33325C12.9336 9.33325 13.4003 9.33325 13.7568 9.51491C14.0704 9.6747 14.3254 9.92966 14.4852 10.2433C14.6668 10.5998 14.6668 11.0665 14.6668 11.9999C14.6668 12.9333 14.6668 13.4001 14.4852 13.7566C14.3254 14.0702 14.0704 14.3251 13.7568 14.4849C13.4003 14.6666 12.9336 14.6666 12.0002 14.6666C11.0667 14.6666 10.6 14.6666 10.2435 14.4849C9.92991 14.3251 9.67494 14.0702 9.51515 13.7566C9.3335 13.4001 9.3335 12.9333 9.3335 11.9999Z" stroke="#0A0A0A" stroke-width="1.6"/>
</g>
</svg>
