<svg width="16" height="16" viewBox="0 0 16 16" fill="none" xmlns="http://www.w3.org/2000/svg">
<g id="elements">
<path id="shape" d="M10 11.3333C9.46698 11.7482 8.76683 11.9999 8 11.9999C7.23317 11.9999 6.53302 11.7482 6 11.3333" stroke="#0A0A0A" stroke-width="1.6" stroke-linecap="round"/>
<path id="shape_2" d="M1.56727 8.80889C1.33192 7.27741 1.21425 6.51167 1.50378 5.83284C1.79332 5.154 2.43569 4.68954 3.72043 3.76063L4.68033 3.06659C6.27853 1.91103 7.07763 1.33325 7.99967 1.33325C8.92171 1.33325 9.72081 1.91103 11.319 3.06659L12.2789 3.76063C13.5637 4.68954 14.206 5.154 14.4956 5.83284C14.7851 6.51167 14.6674 7.27741 14.4321 8.80889L14.2314 10.1148C13.8978 12.2859 13.7309 13.3714 12.9523 14.019C12.1737 14.6666 11.0355 14.6666 8.75888 14.6666H7.24046C4.9639 14.6666 3.82561 14.6666 3.04701 14.019C2.2684 13.3714 2.10159 12.2859 1.76796 10.1148L1.56727 8.80889Z" stroke="#0A0A0A" stroke-width="1.6" stroke-linejoin="round"/>
</g>
</svg>
