<svg width="16" height="14" viewBox="0 0 16 14" fill="none" xmlns="http://www.w3.org/2000/svg">
<g id="elements">
<path id="shape" d="M12.4104 12.3333H12.7372C13.5038 12.3333 14.1135 11.984 14.6609 11.4956C16.0517 10.255 12.7824 8.99992 11.6663 8.99992M10.333 2.3791C10.4844 2.34907 10.6416 2.33325 10.8028 2.33325C12.0161 2.33325 12.9997 3.22868 12.9997 4.33325C12.9997 5.43782 12.0161 6.33325 10.8028 6.33325C10.6416 6.33325 10.4844 6.31743 10.333 6.28741" stroke="#0A0A0A" stroke-width="1.6" stroke-linecap="round"/>
<g id="shape_2">
<path d="M2.98754 9.74071C2.20156 10.1619 0.140758 11.022 1.39592 12.0982C2.00906 12.6239 2.69194 12.9999 3.55048 12.9999H8.44952C9.30806 12.9999 9.99094 12.6239 10.6041 12.0982C11.8592 11.022 9.79844 10.1619 9.01246 9.74071C7.16934 8.75299 4.83066 8.75299 2.98754 9.74071Z" stroke="#0A0A0A" stroke-width="1.6"/>
<path d="M8.66667 3.99992C8.66667 5.47268 7.47276 6.66659 6 6.66659C4.52724 6.66659 3.33333 5.47268 3.33333 3.99992C3.33333 2.52716 4.52724 1.33325 6 1.33325C7.47276 1.33325 8.66667 2.52716 8.66667 3.99992Z" stroke="#0A0A0A" stroke-width="1.6"/>
</g>
</g>
</svg>
