<svg width="16" height="16" viewBox="0 0 16 16" fill="none" xmlns="http://www.w3.org/2000/svg">
<g id="elements">
<path id="shape" d="M8.33301 14.6666H4.39359C3.36334 14.6666 2.54388 14.1653 1.80812 13.4643C0.301918 12.0293 2.77488 10.8826 3.71806 10.321C5.11859 9.48704 6.75756 9.18117 8.33301 9.40338C8.90468 9.484 9.46142 9.63416 9.99967 9.85386" stroke="#0A0A0A" stroke-width="1.6" stroke-linecap="round" stroke-linejoin="round"/>
<path id="shape_2" d="M11 4.33325C11 5.99011 9.65685 7.33325 8 7.33325C6.34315 7.33325 5 5.99011 5 4.33325C5 2.6764 6.34315 1.33325 8 1.33325C9.65685 1.33325 11 2.6764 11 4.33325Z" stroke="#0A0A0A" stroke-width="1.6"/>
<path id="shape_3" d="M12.3328 14.6667L12.3328 10M9.99951 12.3333H14.6662" stroke="#0A0A0A" stroke-width="1.6" stroke-linecap="round"/>
</g>
</svg>
