<svg width="14" height="16" viewBox="0 0 14 16" fill="none" xmlns="http://www.w3.org/2000/svg">
<g id="elements">
<path id="shape" d="M1.3335 8.66657V8.13077C1.3335 6.15251 1.3335 5.16339 1.64612 4.37339C2.1487 3.10337 3.21159 2.1016 4.55907 1.62791C5.39725 1.33325 6.4467 1.33325 8.54563 1.33325C9.74503 1.33325 10.3447 1.33325 10.8236 1.50163C11.5936 1.77231 12.201 2.34475 12.4882 3.07048C12.6668 3.5219 12.6668 4.08711 12.6668 5.21754V8.00937V8.66657" stroke="#0D1E1E" stroke-width="1.6" stroke-linecap="round" stroke-linejoin="round"/>
<path id="shape_2" d="M1.3335 7.99992C1.3335 6.77265 2.32842 5.7777 3.55572 5.7777C3.99958 5.7777 4.52286 5.85547 4.95441 5.73984C5.33784 5.63709 5.63734 5.3376 5.7401 4.95416C5.8557 4.52261 5.77796 3.99933 5.77796 3.55547C5.77796 2.32817 6.7729 1.33325 8.00016 1.33325" stroke="#0D1E1E" stroke-width="1.6" stroke-linecap="round" stroke-linejoin="round"/>
<path id="shape_3" d="M1.3335 14.6665V12.6665M1.3335 12.6665V11.4665C1.3335 11.0894 1.3335 10.9008 1.45066 10.7836C1.56781 10.6665 1.75637 10.6665 2.1335 10.6665H2.66683C3.21912 10.6665 3.66683 11.1142 3.66683 11.6665C3.66683 12.2188 3.21912 12.6665 2.66683 12.6665H1.3335ZM12.6668 10.6665H11.6668C11.0383 10.6665 10.724 10.6665 10.5288 10.8618C10.3335 11.057 10.3335 11.3713 10.3335 11.9998V12.6665M10.3335 12.6665V14.6665M10.3335 12.6665H12.0002M8.3335 12.6665C8.3335 13.7711 7.4381 14.6665 6.3335 14.6665C6.0843 14.6665 5.95963 14.6665 5.86683 14.6129C5.6446 14.4846 5.66683 14.2249 5.66683 13.9998V11.3332C5.66683 11.1081 5.6446 10.8484 5.86683 10.7201C5.95963 10.6665 6.0843 10.6665 6.3335 10.6665C7.4381 10.6665 8.3335 11.5619 8.3335 12.6665Z" stroke="#0D1E1E" stroke-width="1.6" stroke-linecap="round" stroke-linejoin="round"/>
</g>
</svg>
