<svg width="16" height="16" viewBox="0 0 16 16" fill="none" xmlns="http://www.w3.org/2000/svg">
<g id="elements">
<path id="shape" d="M12.6668 8.08619L8.62603 12.1379C7.4373 13.3299 6.8429 13.9259 6.11345 13.9917C5.99286 14.0027 5.87153 14.0027 5.75094 13.9917C5.02146 13.9259 4.42709 13.3299 3.23834 12.1379L1.89141 10.7873C1.14752 10.0414 1.14752 8.83205 1.89141 8.08619M12.6668 8.08619L7.2791 2.68383M12.6668 8.08619H1.89141M1.89141 8.08619L7.2791 2.68383M7.2791 2.68383L5.9322 1.33325" stroke="#0D1E1E" stroke-width="1.6" stroke-linecap="round" stroke-linejoin="round"/>
<path id="shape_2" d="M14.6667 13.3333C14.6667 14.0697 14.0697 14.6666 13.3333 14.6666C12.5969 14.6666 12 14.0697 12 13.3333C12 12.5969 13.3333 11.3333 13.3333 11.3333C13.3333 11.3333 14.6667 12.5969 14.6667 13.3333Z" stroke="#0D1E1E" stroke-width="1.6" stroke-linecap="round" stroke-linejoin="round"/>
</g>
</svg>
