<svg width="14" height="16" viewBox="0 0 14 16" fill="none" xmlns="http://www.w3.org/2000/svg">
<g id="elements">
<path id="shape" d="M12.9998 14.6666L11.5685 13.2352M11.5685 13.2352C11.6448 13.1589 11.7158 13.0771 11.7808 12.9906C12.0678 12.6086 12.2379 12.1336 12.2379 11.619C12.2379 10.3566 11.2146 9.33325 9.95222 9.33325C8.68985 9.33325 7.6665 10.3566 7.6665 11.619C7.6665 12.8813 8.68985 13.9047 9.95222 13.9047C10.5834 13.9047 11.1548 13.6488 11.5685 13.2352Z" stroke="#0A0A0A" stroke-width="1.6" stroke-linecap="round"/>
<path id="shape_2" d="M6.3335 14.6665H6.15168C3.97754 14.6665 2.89047 14.6665 2.13554 14.1346C1.91924 13.9822 1.72722 13.8015 1.5653 13.5979C1.00016 12.8874 1.00016 11.8643 1.00016 9.81802V8.12105C1.00016 6.1456 1.00016 5.15788 1.31279 4.369C1.81537 3.10079 2.87825 2.10043 4.22574 1.62741C5.06392 1.33317 6.11337 1.33317 8.21228 1.33317C9.41166 1.33317 10.0114 1.33317 10.4903 1.5013C11.2603 1.7716 11.8677 2.34324 12.1549 3.06793C12.3335 3.51872 12.3335 4.08313 12.3335 5.21196V7.99984" stroke="#0A0A0A" stroke-width="1.6" stroke-linecap="round" stroke-linejoin="round"/>
<path id="shape_3" d="M0.999837 8C0.999837 6.7727 1.99476 5.77778 3.22206 5.77778C3.66592 5.77778 4.1892 5.85555 4.62075 5.73992C5.00418 5.63718 5.30368 5.33768 5.40642 4.95424C5.52206 4.52269 5.44428 3.99941 5.44428 3.55556C5.44428 2.32826 6.4392 1.33333 7.6665 1.33333" stroke="#0A0A0A" stroke-width="1.6" stroke-linecap="round" stroke-linejoin="round"/>
</g>
</svg>
