<svg width="14" height="16" viewBox="0 0 14 16" fill="none" xmlns="http://www.w3.org/2000/svg">
<g id="elements">
<path id="shape" d="M7 10.9998V9.6665" stroke="#0A0A0A" stroke-width="1.6" stroke-linecap="round"/>
<path id="shape_2" d="M1.84553 12.5632C1.99545 13.6767 2.91774 14.549 4.0401 14.6006C4.98451 14.644 5.94386 14.6667 7.00032 14.6667C8.05679 14.6667 9.01614 14.644 9.96055 14.6006C11.0829 14.549 12.0052 13.6767 12.1551 12.5632C12.253 11.8365 12.3337 11.0917 12.3337 10.3333C12.3337 9.57492 12.253 8.83021 12.1551 8.1035C12.0052 6.99001 11.0829 6.11766 9.96055 6.06606C9.01614 6.02265 8.05679 6 7.00033 6C5.94386 6 4.98451 6.02265 4.0401 6.06606C2.91774 6.11766 1.99545 6.99001 1.84553 8.1035C1.74769 8.83021 1.66699 9.57492 1.66699 10.3333C1.66699 11.0917 1.74769 11.8365 1.84553 12.5632Z" stroke="#0A0A0A" stroke-width="1.6"/>
<path id="shape_3" d="M4 5.99992V4.33325C4 2.6764 5.34315 1.33325 7 1.33325C8.65685 1.33325 10 2.6764 10 4.33325V5.99992" stroke="#0A0A0A" stroke-width="1.6" stroke-linecap="round" stroke-linejoin="round"/>
</g>
</svg>
