<svg width="16" height="16" viewBox="0 0 16 16" fill="none" xmlns="http://www.w3.org/2000/svg">
<g id="elements">
<path id="shape" d="M6 10C6 8.11438 6 7.17157 6.58579 6.58579C7.17157 6 8.11438 6 10 6L10.6667 6C12.5523 6 13.4951 6 14.0809 6.58579C14.6667 7.17157 14.6667 8.11438 14.6667 10V10.6667C14.6667 12.5523 14.6667 13.4951 14.0809 14.0809C13.4951 14.6667 12.5523 14.6667 10.6667 14.6667H10C8.11438 14.6667 7.17157 14.6667 6.58579 14.0809C6 13.4951 6 12.5523 6 10.6667L6 10Z" stroke="#0A0A0A" stroke-width="1.6" stroke-linecap="round" stroke-linejoin="round"/>
<path id="shape_2" d="M11.3334 5.99992C11.3319 4.02852 11.302 3.00739 10.7282 2.3082C10.6174 2.17318 10.4936 2.04937 10.3585 1.93856C9.62098 1.33325 8.52515 1.33325 6.3335 1.33325C4.14184 1.33325 3.04601 1.33325 2.30845 1.93856C2.17342 2.04937 2.04961 2.17318 1.9388 2.3082C1.3335 3.04577 1.3335 4.1416 1.3335 6.33325C1.3335 8.52491 1.3335 9.62073 1.9388 10.3583C2.04961 10.4933 2.17342 10.6171 2.30845 10.7279C3.00763 11.3018 4.02877 11.3316 6.00016 11.3332" stroke="#0A0A0A" stroke-width="1.6" stroke-linecap="round" stroke-linejoin="round"/>
</g>
</svg>
