<svg width="16" height="16" viewBox="0 0 16 16" fill="none" xmlns="http://www.w3.org/2000/svg">
<g id="elements">
<path id="shape" d="M9.38263 2.59022C9.87942 2.05197 10.1278 1.78285 10.3918 1.62587C11.0287 1.24709 11.8129 1.23531 12.4604 1.5948C12.7288 1.74379 12.9848 2.00533 13.4969 2.52843C14.0089 3.05152 14.265 3.31307 14.4108 3.5872C14.7627 4.24866 14.7512 5.04978 14.3804 5.70039C14.2267 5.97002 13.9633 6.22377 13.4364 6.73126L7.16725 12.7694C6.16875 13.7312 5.6695 14.212 5.04554 14.4557C4.42158 14.6995 3.73563 14.6815 2.36374 14.6456L2.17708 14.6408C1.75943 14.6298 1.55061 14.6244 1.42922 14.4866C1.30783 14.3489 1.3244 14.1361 1.35755 13.7107L1.37555 13.4797C1.46883 12.2823 1.51548 11.6836 1.7493 11.1454C1.98312 10.6072 2.38645 10.1702 3.19311 9.29625L9.38263 2.59022Z" stroke="#0A0A0A" stroke-width="1.6" stroke-linejoin="round"/>
<path id="shape_2" d="M8.66699 2.6665L13.3337 7.33317" stroke="#0A0A0A" stroke-width="1.6" stroke-linejoin="round"/>
<path id="shape_3" d="M9.3335 14.6665L14.6668 14.6665" stroke="#0A0A0A" stroke-width="1.6" stroke-linecap="round" stroke-linejoin="round"/>
</g>
</svg>
