<svg width="16" height="16" viewBox="0 0 16 16" fill="none" xmlns="http://www.w3.org/2000/svg">
<g id="elements">
<path id="shape" d="M4.9028 11.9999C3.48739 11.9999 2.77968 11.9999 2.27582 11.6978C1.94652 11.5003 1.68122 11.218 1.51 10.8827C1.24802 10.3697 1.31844 9.69145 1.45928 8.33492C1.57685 7.20252 1.63564 6.63628 1.92472 6.22046C2.11452 5.94744 2.37122 5.72368 2.67214 5.56894C3.13048 5.33325 3.72126 5.33325 4.9028 5.33325H11.0975C12.2791 5.33325 12.8698 5.33325 13.3282 5.56894C13.6291 5.72368 13.8858 5.94744 14.0756 6.22046C14.3647 6.63628 14.4235 7.20252 14.541 8.33492C14.6819 9.69145 14.7523 10.3697 14.4903 10.8827C14.3191 11.218 14.0538 11.5003 13.7245 11.6978C13.2206 11.9999 12.513 11.9999 11.0975 11.9999" stroke="#0D1E1E" stroke-width="1.6"/>
<path id="shape_2" d="M11.3332 5.33325V3.99992C11.3332 2.74284 11.3332 2.1143 10.9426 1.72378C10.5521 1.33325 9.92357 1.33325 8.6665 1.33325H7.33317C6.07609 1.33325 5.44755 1.33325 5.05703 1.72378C4.6665 2.1143 4.6665 2.74284 4.6665 3.99992V5.33325" stroke="#0D1E1E" stroke-width="1.6" stroke-linejoin="round"/>
<path id="shape_3" d="M9.32564 10.6667H6.67404C6.21719 10.6667 5.98875 10.6667 5.79439 10.7393C5.53524 10.8361 5.31335 11.0241 5.16397 11.2733C5.05194 11.4603 4.99654 11.7008 4.88573 12.1817C4.71259 12.9331 4.62603 13.3087 4.6849 13.61C4.76341 14.0117 5.00809 14.3517 5.34819 14.5317C5.60326 14.6667 5.96019 14.6667 6.67404 14.6667H9.32564C10.0395 14.6667 10.3964 14.6667 10.6515 14.5317C10.9916 14.3517 11.2363 14.0117 11.3148 13.61C11.3736 13.3087 11.2871 12.9331 11.114 12.1817C11.0032 11.7008 10.9477 11.4603 10.8357 11.2733C10.6863 11.0241 10.4644 10.8361 10.2053 10.7393C10.0109 10.6667 9.78251 10.6667 9.32564 10.6667Z" stroke="#0D1E1E" stroke-width="1.6" stroke-linejoin="round"/>
<path id="shape_4" d="M12 8H12.006" stroke="#0D1E1E" stroke-width="1.6" stroke-linecap="round" stroke-linejoin="round"/>
</g>
</svg>
