<svg width="16" height="12" viewBox="0 0 16 12" fill="none" xmlns="http://www.w3.org/2000/svg">
<g id="elements">
<path id="shape" d="M14.3623 5.36324C14.565 5.64746 14.6663 5.78956 14.6663 5.99992C14.6663 6.21028 14.565 6.35238 14.3623 6.6366C13.4516 7.91362 11.1258 10.6666 7.99967 10.6666C4.87353 10.6666 2.54774 7.91363 1.63704 6.6366C1.43435 6.35238 1.33301 6.21028 1.33301 5.99992C1.33301 5.78956 1.43435 5.64746 1.63703 5.36324C2.54774 4.08621 4.87353 1.33325 7.99967 1.33325C11.1258 1.33325 13.4516 4.08621 14.3623 5.36324Z" stroke="#0A0A0A" stroke-width="1.6"/>
<path id="shape_2" d="M10 6C10 4.89543 9.10457 4 8 4C6.89543 4 6 4.89543 6 6C6 7.10457 6.89543 8 8 8C9.10457 8 10 7.10457 10 6Z" stroke="#0A0A0A" stroke-width="1.6"/>
</g>
</svg>
