<svg width="14" height="16" viewBox="0 0 14 16" fill="none" xmlns="http://www.w3.org/2000/svg">
<g id="elements">
<path id="shape" d="M1.33301 6.66658C1.33301 4.15243 1.33301 2.89535 2.16287 2.1143C2.99273 1.33325 4.32838 1.33325 6.99967 1.33325H7.51481C9.68894 1.33325 10.776 1.33325 11.5309 1.86515C11.7473 2.01754 11.9393 2.19827 12.1012 2.40185C12.6663 3.11237 12.6663 4.13549 12.6663 6.18174V7.87872C12.6663 9.85418 12.6663 10.8419 12.3537 11.6307C11.8511 12.899 10.7883 13.8993 9.44074 14.3723C8.60261 14.6666 7.55314 14.6666 5.45422 14.6666C4.25484 14.6666 3.65515 14.6666 3.17619 14.4985C2.4062 14.2282 1.79884 13.6565 1.51165 12.9319C1.33301 12.4811 1.33301 11.9167 1.33301 10.7878V6.66658Z" stroke="#0D1E1E" stroke-width="1.6" stroke-linejoin="round"/>
<path id="shape_2" d="M12.6667 8C12.6667 9.22727 11.6717 10.2222 10.4445 10.2222C10.0006 10.2222 9.47733 10.1445 9.04573 10.2601C8.66233 10.3628 8.3628 10.6623 8.26007 11.0457C8.14447 11.4773 8.2222 12.0006 8.2222 12.4445C8.2222 13.6717 7.22727 14.6667 6 14.6667" stroke="#0D1E1E" stroke-width="1.6" stroke-linecap="round" stroke-linejoin="round"/>
<path id="shape_3" d="M4.33301 4.66675H8.99967" stroke="#0D1E1E" stroke-width="1.6" stroke-linecap="round" stroke-linejoin="round"/>
<path id="shape_4" d="M4.33301 7.33325H6.33301" stroke="#0D1E1E" stroke-width="1.6" stroke-linecap="round" stroke-linejoin="round"/>
</g>
</svg>
