<svg width="16" height="14" viewBox="0 0 16 14" fill="none" xmlns="http://www.w3.org/2000/svg">
<g id="elements">
<path id="shape" d="M7.66683 12.3334H6.66683C4.15267 12.3334 2.8956 12.3334 2.11454 11.5523C1.3335 10.7713 1.3335 9.51421 1.3335 7.00008C1.3335 4.48592 1.3335 3.22885 2.11454 2.44779C2.8956 1.66675 4.15267 1.66675 6.66683 1.66675H9.3335C11.8476 1.66675 13.1048 1.66675 13.8858 2.44779C14.6315 3.19353 14.6652 4.37324 14.6668 6.66675" stroke="#0D1E1E" stroke-width="1.6" stroke-linecap="round" stroke-linejoin="round"/>
<path id="shape_2" d="M13.6668 8.33325H10.3335C9.78123 8.33325 9.3335 8.78099 9.3335 9.33325V11.3333C9.3335 11.8855 9.78123 12.3333 10.3335 12.3333H13.6668C14.2191 12.3333 14.6668 11.8855 14.6668 11.3333V9.33325C14.6668 8.78099 14.2191 8.33325 13.6668 8.33325Z" stroke="#0D1E1E" stroke-width="1.6"/>
<path id="shape_3" d="M4.00281 6.66745V5.00077C3.97114 4.61783 4.26718 4.31821 4.66948 4.3341H6.33614M7.33614 7.66745L4.66948 5.00077" stroke="#0D1E1E" stroke-width="1.6" stroke-linecap="round" stroke-linejoin="round"/>
</g>
</svg>
