<svg width="28" height="16" viewBox="0 0 28 16" fill="none" xmlns="http://www.w3.org/2000/svg">
<path id="Union" fill-rule="evenodd" clip-rule="evenodd" d="M6.08117 2.74847L10.6403 0.126552C10.8744 -0.00472172 11.1512 -0.0331052 11.4066 0.0378535C11.2008 0.101716 11.0092 0.23299 10.8638 0.452962C10.7538 0.619714 10.7077 0.821947 10.7077 1.02063V5.92032V5.92742V11.8738C10.7077 12.225 10.5196 12.5514 10.2145 12.7253L5.65897 15.3472C5.4248 15.4749 5.14452 15.5068 4.89261 15.4359C5.09839 15.3685 5.28643 15.2372 5.4319 15.0208C5.54188 14.8576 5.58801 14.6589 5.58801 14.4602V9.54986V9.54276V3.59998C5.58801 3.24873 5.77605 2.92232 6.08117 2.74847ZM12.2901 6.18642L17.4878 9.17732H17.5055L22.2491 6.4667C22.2491 6.4667 22.2597 6.45606 22.2597 6.44896V1.65925C22.2597 1.42509 22.1569 1.19093 21.9653 1.05611C21.7453 0.907093 21.4757 0.89645 21.2486 1.02418L17.8213 2.98618L16.9449 3.49354C16.9449 3.49354 16.9201 3.50773 16.9059 3.51128L12.2936 6.15449C12.2936 6.15449 12.283 6.17932 12.2936 6.18642H12.2901ZM5.04871 9.83369L0 12.7395L0.0425752 12.7643L4.06238 15.074C4.28945 15.1982 4.56264 15.1875 4.77906 15.0385C4.9742 14.9072 5.07354 14.6731 5.07354 14.4354V9.84789C5.07354 9.84789 5.05935 9.8266 5.04516 9.83015L5.04871 9.83369ZM12.244 0.392649C12.1411 0.335882 12.0275 0.307499 11.914 0.307499C11.7331 0.307499 11.5521 0.382006 11.4102 0.527471C11.286 0.655196 11.2328 0.836141 11.2328 1.01354V5.61875C11.2328 5.61875 11.247 5.64004 11.2612 5.63649L16.2815 2.74848C16.2815 2.74848 16.2922 2.72364 16.2815 2.71654L12.244 0.392649ZM22.8451 0.754543L27.4042 3.38001C27.7093 3.55741 27.8974 3.88027 27.8974 4.23152V15.9823C27.8974 16 27.869 16 27.869 16L23.2673 13.3532C22.9622 13.1759 22.7742 12.853 22.7742 12.5017V6.55896V6.55186V1.67701C22.7742 1.30802 22.6003 0.946131 22.2846 0.758091C22.2207 0.719063 22.1497 0.687132 22.0788 0.665844C22.3342 0.594886 22.611 0.623269 22.8451 0.754543Z" fill="#1A6F70"/>
</svg>
